<mxfile host="app.diagrams.net" modified="2021-07-12T07:26:12.219Z" agent="5.0 (Macintosh; Intel Mac OS X 10_15_7) AppleWebKit/605.1.15 (KHTML, like Gecko) Version/14.1 Safari/605.1.15" etag="PeqPgrdeIeJ2YUZqpBPn" version="14.8.5" type="github">
  <diagram id="C5RBs43oDa-KdzZeNtuy" name="Page-1">
    <mxGraphModel dx="1840" dy="894" grid="1" gridSize="10" guides="1" tooltips="1" connect="1" arrows="1" fold="1" page="1" pageScale="1" pageWidth="827" pageHeight="1169" math="0" shadow="0">
      <root>
        <mxCell id="WIyWlLk6GJQsqaUBKTNV-0" />
        <mxCell id="WIyWlLk6GJQsqaUBKTNV-1" parent="WIyWlLk6GJQsqaUBKTNV-0" />
        <mxCell id="_4BCGAMV-5Bkbx0sjwyB-205" value="" style="rounded=0;whiteSpace=wrap;html=1;shadow=0;fontSize=15;fontColor=#FFFFFF;fillColor=#FFFFFF;gradientColor=none;" vertex="1" parent="WIyWlLk6GJQsqaUBKTNV-1">
          <mxGeometry x="-10" y="120" width="890" height="1420" as="geometry" />
        </mxCell>
        <mxCell id="WIyWlLk6GJQsqaUBKTNV-2" value="" style="rounded=0;html=1;jettySize=auto;orthogonalLoop=1;fontSize=11;endArrow=block;endFill=0;endSize=8;strokeWidth=1;shadow=0;labelBackgroundColor=none;edgeStyle=orthogonalEdgeStyle;" parent="WIyWlLk6GJQsqaUBKTNV-1" source="WIyWlLk6GJQsqaUBKTNV-3" target="WIyWlLk6GJQsqaUBKTNV-6" edge="1">
          <mxGeometry relative="1" as="geometry" />
        </mxCell>
        <mxCell id="WIyWlLk6GJQsqaUBKTNV-3" value="&lt;p style=&quot;margin: 0px ; font-stretch: normal ; line-height: normal ; font-family: &amp;#34;menlo&amp;#34; ; color: rgb(15 , 104 , 160) ; background-color: rgb(255 , 255 , 255)&quot;&gt;resolveMethod_locked&lt;/p&gt;" style="rounded=1;whiteSpace=wrap;html=1;fontSize=12;glass=0;strokeWidth=1;shadow=0;" parent="WIyWlLk6GJQsqaUBKTNV-1" vertex="1">
          <mxGeometry x="120" y="190" width="200" height="50" as="geometry" />
        </mxCell>
        <mxCell id="_4BCGAMV-5Bkbx0sjwyB-130" value="是" style="edgeStyle=none;rounded=0;orthogonalLoop=1;jettySize=auto;html=1;exitX=1;exitY=0.5;exitDx=0;exitDy=0;entryX=0;entryY=0.5;entryDx=0;entryDy=0;endArrow=block;endFill=0;endSize=8;" edge="1" parent="WIyWlLk6GJQsqaUBKTNV-1" source="WIyWlLk6GJQsqaUBKTNV-6" target="_4BCGAMV-5Bkbx0sjwyB-7">
          <mxGeometry x="-0.2" relative="1" as="geometry">
            <mxPoint as="offset" />
          </mxGeometry>
        </mxCell>
        <mxCell id="_4BCGAMV-5Bkbx0sjwyB-131" value="否" style="edgeStyle=none;rounded=0;orthogonalLoop=1;jettySize=auto;html=1;exitX=0.5;exitY=1;exitDx=0;exitDy=0;entryX=0.5;entryY=0;entryDx=0;entryDy=0;endArrow=block;endFill=0;endSize=8;" edge="1" parent="WIyWlLk6GJQsqaUBKTNV-1" source="WIyWlLk6GJQsqaUBKTNV-6" target="WIyWlLk6GJQsqaUBKTNV-7">
          <mxGeometry relative="1" as="geometry" />
        </mxCell>
        <mxCell id="WIyWlLk6GJQsqaUBKTNV-6" value="&lt;p style=&quot;margin: 0px ; font-stretch: normal ; line-height: normal ; font-family: &amp;#34;menlo&amp;#34; ; color: rgb(50 , 109 , 116) ; background-color: rgb(255 , 255 , 255)&quot;&gt;&lt;span style=&quot;color: rgba(0 , 0 , 0 , 0.85)&quot;&gt;cls-&amp;gt;&lt;/span&gt;isMetaClass&lt;span style=&quot;color: rgba(0 , 0 , 0 , 0.85)&quot;&gt;()&lt;/span&gt;&lt;/p&gt;" style="rhombus;whiteSpace=wrap;html=1;shadow=0;fontFamily=Helvetica;fontSize=12;align=center;strokeWidth=1;spacing=6;spacingTop=-4;" parent="WIyWlLk6GJQsqaUBKTNV-1" vertex="1">
          <mxGeometry x="130" y="311.25" width="180" height="70" as="geometry" />
        </mxCell>
        <mxCell id="_4BCGAMV-5Bkbx0sjwyB-171" style="edgeStyle=none;rounded=0;orthogonalLoop=1;jettySize=auto;html=1;exitX=0.5;exitY=1;exitDx=0;exitDy=0;entryX=0.5;entryY=0;entryDx=0;entryDy=0;endArrow=block;endFill=0;endSize=8;" edge="1" parent="WIyWlLk6GJQsqaUBKTNV-1" source="WIyWlLk6GJQsqaUBKTNV-7" target="_4BCGAMV-5Bkbx0sjwyB-169">
          <mxGeometry relative="1" as="geometry" />
        </mxCell>
        <mxCell id="WIyWlLk6GJQsqaUBKTNV-7" value="&lt;p style=&quot;margin: 0px ; font-stretch: normal ; line-height: normal ; font-family: &amp;#34;menlo&amp;#34; ; color: rgb(50 , 109 , 116) ; background-color: rgb(255 , 255 , 255)&quot;&gt;resolveInstanceMethod&lt;/p&gt;" style="rounded=1;whiteSpace=wrap;html=1;fontSize=12;glass=0;strokeWidth=1;shadow=0;" parent="WIyWlLk6GJQsqaUBKTNV-1" vertex="1">
          <mxGeometry x="132" y="430" width="176" height="47.5" as="geometry" />
        </mxCell>
        <mxCell id="_4BCGAMV-5Bkbx0sjwyB-4" value="&lt;font style=&quot;font-size: 24px&quot;&gt;动态方法决议流程图&lt;/font&gt;" style="shape=note;size=20;whiteSpace=wrap;html=1;fillColor=#FFFF66;" vertex="1" parent="WIyWlLk6GJQsqaUBKTNV-1">
          <mxGeometry x="620" y="120" width="260" height="80" as="geometry" />
        </mxCell>
        <mxCell id="_4BCGAMV-5Bkbx0sjwyB-180" style="edgeStyle=none;rounded=0;orthogonalLoop=1;jettySize=auto;html=1;exitX=0.5;exitY=1;exitDx=0;exitDy=0;entryX=0.5;entryY=0;entryDx=0;entryDy=0;endArrow=block;endFill=0;endSize=8;" edge="1" parent="WIyWlLk6GJQsqaUBKTNV-1" source="_4BCGAMV-5Bkbx0sjwyB-7" target="_4BCGAMV-5Bkbx0sjwyB-173">
          <mxGeometry relative="1" as="geometry" />
        </mxCell>
        <mxCell id="_4BCGAMV-5Bkbx0sjwyB-7" value="&lt;p style=&quot;margin: 0px ; font-stretch: normal ; line-height: normal ; font-family: &amp;#34;menlo&amp;#34; ; color: rgb(50 , 109 , 116) ; background-color: rgb(255 , 255 , 255)&quot;&gt;resolveClassMethod&lt;/p&gt;" style="rounded=1;whiteSpace=wrap;html=1;fillColor=#FFFFFF;" vertex="1" parent="WIyWlLk6GJQsqaUBKTNV-1">
          <mxGeometry x="380" y="321.25" width="200" height="50" as="geometry" />
        </mxCell>
        <mxCell id="_4BCGAMV-5Bkbx0sjwyB-163" value="否" style="edgeStyle=none;rounded=0;orthogonalLoop=1;jettySize=auto;html=1;endArrow=block;endFill=0;endSize=8;" edge="1" parent="WIyWlLk6GJQsqaUBKTNV-1" source="_4BCGAMV-5Bkbx0sjwyB-134" target="_4BCGAMV-5Bkbx0sjwyB-162">
          <mxGeometry relative="1" as="geometry" />
        </mxCell>
        <mxCell id="_4BCGAMV-5Bkbx0sjwyB-164" style="edgeStyle=none;rounded=0;orthogonalLoop=1;jettySize=auto;html=1;exitX=0.5;exitY=1;exitDx=0;exitDy=0;endArrow=block;endFill=0;endSize=8;entryX=0.5;entryY=0;entryDx=0;entryDy=0;" edge="1" parent="WIyWlLk6GJQsqaUBKTNV-1" source="_4BCGAMV-5Bkbx0sjwyB-134" target="_4BCGAMV-5Bkbx0sjwyB-165">
          <mxGeometry relative="1" as="geometry">
            <mxPoint x="217.5" y="854" as="targetPoint" />
          </mxGeometry>
        </mxCell>
        <mxCell id="_4BCGAMV-5Bkbx0sjwyB-167" value="是" style="edgeLabel;html=1;align=center;verticalAlign=middle;resizable=0;points=[];" vertex="1" connectable="0" parent="_4BCGAMV-5Bkbx0sjwyB-164">
          <mxGeometry x="-0.2" relative="1" as="geometry">
            <mxPoint as="offset" />
          </mxGeometry>
        </mxCell>
        <mxCell id="_4BCGAMV-5Bkbx0sjwyB-134" value="&lt;p style=&quot;margin: 0.0px 0.0px 0.0px 0.0px ; font: 12.0px &amp;#34;menlo&amp;#34; ; color: #000000 ; color: rgba(0 , 0 , 0 , 0.85) ; background-color: #ffffff&quot;&gt;&lt;span style=&quot;font-family: &amp;#34;menlo&amp;#34; ; color: rgb(155 , 35 , 147)&quot;&gt;&lt;b&gt;if&lt;/b&gt;&lt;/span&gt;&lt;span style=&quot;font-family: &amp;#34;menlo&amp;#34;&quot;&gt; (!&lt;/span&gt;&lt;span style=&quot;color: rgb(50 , 109 , 116)&quot;&gt;lookUpImpOrNilTryCache&lt;/span&gt;(类, resolve_sel, 元类)&lt;span style=&quot;font-family: &amp;#34;menlo&amp;#34;&quot;&gt;)&lt;/span&gt;&lt;/p&gt;" style="rounded=1;whiteSpace=wrap;html=1;fillColor=#FFFFFF;" vertex="1" parent="WIyWlLk6GJQsqaUBKTNV-1">
          <mxGeometry x="95" y="689" width="250" height="69.99" as="geometry" />
        </mxCell>
        <mxCell id="_4BCGAMV-5Bkbx0sjwyB-143" value="" style="edgeStyle=none;rounded=0;orthogonalLoop=1;jettySize=auto;html=1;endArrow=block;endFill=0;endSize=8;" edge="1" parent="WIyWlLk6GJQsqaUBKTNV-1" source="_4BCGAMV-5Bkbx0sjwyB-137" target="_4BCGAMV-5Bkbx0sjwyB-142">
          <mxGeometry relative="1" as="geometry" />
        </mxCell>
        <mxCell id="_4BCGAMV-5Bkbx0sjwyB-184" style="edgeStyle=none;rounded=0;orthogonalLoop=1;jettySize=auto;html=1;exitX=1;exitY=0.5;exitDx=0;exitDy=0;entryX=0;entryY=0.5;entryDx=0;entryDy=0;endArrow=block;endFill=0;endSize=8;" edge="1" parent="WIyWlLk6GJQsqaUBKTNV-1" source="_4BCGAMV-5Bkbx0sjwyB-137" target="_4BCGAMV-5Bkbx0sjwyB-151">
          <mxGeometry relative="1" as="geometry" />
        </mxCell>
        <mxCell id="_4BCGAMV-5Bkbx0sjwyB-137" value="&lt;p style=&quot;margin: 0px ; font-stretch: normal ; line-height: normal ; font-family: &amp;#34;menlo&amp;#34; ; color: rgb(50 , 109 , 116) ; background-color: rgb(255 , 255 , 255)&quot;&gt;objc_msgSend&lt;span style=&quot;color: rgba(0 , 0 , 0 , 0.85)&quot;&gt;(cls, resolve_sel, sel)&lt;/span&gt;&lt;/p&gt;&lt;p style=&quot;margin: 0px ; font-stretch: normal ; line-height: normal ; font-family: &amp;#34;menlo&amp;#34; ; background-color: rgb(255 , 255 , 255)&quot;&gt;&lt;span style=&quot;color: rgba(0 , 0 , 0 , 0.85)&quot;&gt;调用resolve_sel，&lt;/span&gt;&lt;/p&gt;" style="rounded=1;whiteSpace=wrap;html=1;fillColor=#FFFFFF;" vertex="1" parent="WIyWlLk6GJQsqaUBKTNV-1">
          <mxGeometry x="90" y="935" width="260" height="60" as="geometry" />
        </mxCell>
        <mxCell id="_4BCGAMV-5Bkbx0sjwyB-192" style="edgeStyle=none;rounded=0;orthogonalLoop=1;jettySize=auto;html=1;exitX=0.5;exitY=1;exitDx=0;exitDy=0;entryX=0.5;entryY=0;entryDx=0;entryDy=0;shadow=0;endArrow=block;endFill=0;endSize=8;" edge="1" parent="WIyWlLk6GJQsqaUBKTNV-1" source="_4BCGAMV-5Bkbx0sjwyB-142" target="_4BCGAMV-5Bkbx0sjwyB-187">
          <mxGeometry relative="1" as="geometry" />
        </mxCell>
        <mxCell id="_4BCGAMV-5Bkbx0sjwyB-142" value="&lt;p style=&quot;margin: 0px ; font-stretch: normal ; line-height: normal ; font-family: &amp;#34;menlo&amp;#34; ; color: rgb(50 , 109 , 116) ; background-color: rgb(255 , 255 , 255)&quot;&gt;lookUpImpOrNilTryCache&lt;/p&gt;&lt;p style=&quot;margin: 0px ; font-stretch: normal ; line-height: normal ; font-family: &amp;#34;menlo&amp;#34; ; color: rgb(50 , 109 , 116) ; background-color: rgb(255 , 255 , 255)&quot;&gt;缓存上一步的结果，下次不会再触发动态方法决议&lt;/p&gt;" style="whiteSpace=wrap;html=1;rounded=1;fillColor=#FFFFFF;" vertex="1" parent="WIyWlLk6GJQsqaUBKTNV-1">
          <mxGeometry x="120" y="1055" width="200" height="70" as="geometry" />
        </mxCell>
        <mxCell id="_4BCGAMV-5Bkbx0sjwyB-178" style="edgeStyle=none;rounded=0;orthogonalLoop=1;jettySize=auto;html=1;exitX=0.5;exitY=1;exitDx=0;exitDy=0;entryX=0.5;entryY=0;entryDx=0;entryDy=0;endArrow=block;endFill=0;endSize=8;" edge="1" parent="WIyWlLk6GJQsqaUBKTNV-1" source="_4BCGAMV-5Bkbx0sjwyB-151" target="_4BCGAMV-5Bkbx0sjwyB-159">
          <mxGeometry relative="1" as="geometry" />
        </mxCell>
        <mxCell id="_4BCGAMV-5Bkbx0sjwyB-179" value="否" style="edgeLabel;html=1;align=center;verticalAlign=middle;resizable=0;points=[];" vertex="1" connectable="0" parent="_4BCGAMV-5Bkbx0sjwyB-178">
          <mxGeometry relative="1" as="geometry">
            <mxPoint as="offset" />
          </mxGeometry>
        </mxCell>
        <mxCell id="_4BCGAMV-5Bkbx0sjwyB-185" value="是" style="edgeStyle=none;rounded=0;orthogonalLoop=1;jettySize=auto;html=1;exitX=1;exitY=0.5;exitDx=0;exitDy=0;entryX=0;entryY=0.5;entryDx=0;entryDy=0;endArrow=block;endFill=0;endSize=8;" edge="1" parent="WIyWlLk6GJQsqaUBKTNV-1" source="_4BCGAMV-5Bkbx0sjwyB-151" target="_4BCGAMV-5Bkbx0sjwyB-156">
          <mxGeometry relative="1" as="geometry" />
        </mxCell>
        <mxCell id="_4BCGAMV-5Bkbx0sjwyB-151" value="&lt;p style=&quot;margin: 0px ; font-stretch: normal ; line-height: normal ; font-family: &amp;#34;menlo&amp;#34; ; background-color: rgb(255 , 255 , 255)&quot;&gt;&lt;span style=&quot;color: rgba(0 , 0 , 0 , 0.85)&quot;&gt;是否动态添加了imp&lt;/span&gt;&lt;/p&gt;" style="rhombus;whiteSpace=wrap;html=1;shadow=0;fontFamily=Helvetica;fontSize=12;align=center;strokeWidth=1;spacing=6;spacingTop=-4;" vertex="1" parent="WIyWlLk6GJQsqaUBKTNV-1">
          <mxGeometry x="400" y="930" width="180" height="70" as="geometry" />
        </mxCell>
        <mxCell id="_4BCGAMV-5Bkbx0sjwyB-156" value="将sel和imp存入cls的方法列表中" style="rounded=1;whiteSpace=wrap;html=1;fillColor=#FFFFFF;" vertex="1" parent="WIyWlLk6GJQsqaUBKTNV-1">
          <mxGeometry x="630" y="935" width="190" height="60" as="geometry" />
        </mxCell>
        <mxCell id="_4BCGAMV-5Bkbx0sjwyB-159" value="将sel和forward_imp存入cls的方法列表中" style="rounded=1;whiteSpace=wrap;html=1;fillColor=#FFFFFF;" vertex="1" parent="WIyWlLk6GJQsqaUBKTNV-1">
          <mxGeometry x="400" y="1055" width="180" height="70" as="geometry" />
        </mxCell>
        <mxCell id="_4BCGAMV-5Bkbx0sjwyB-162" value="&lt;font face=&quot;menlo&quot;&gt;&lt;span style=&quot;color: rgba(0 , 0 , 0 , 0.85) ; background-color: rgb(255 , 255 , 255)&quot;&gt;return&lt;br&gt;返回，结束动态方法决议&lt;br&gt;resolve_sel默认实现，一般不会走这里&lt;br&gt;&lt;/span&gt;&lt;/font&gt;" style="whiteSpace=wrap;html=1;rounded=1;fillColor=#FFFFFF;" vertex="1" parent="WIyWlLk6GJQsqaUBKTNV-1">
          <mxGeometry x="400" y="692.49" width="260" height="63" as="geometry" />
        </mxCell>
        <mxCell id="_4BCGAMV-5Bkbx0sjwyB-172" style="edgeStyle=none;rounded=0;orthogonalLoop=1;jettySize=auto;html=1;exitX=0.5;exitY=1;exitDx=0;exitDy=0;entryX=0.5;entryY=0;entryDx=0;entryDy=0;endArrow=block;endFill=0;endSize=8;" edge="1" parent="WIyWlLk6GJQsqaUBKTNV-1" source="_4BCGAMV-5Bkbx0sjwyB-165" target="_4BCGAMV-5Bkbx0sjwyB-137">
          <mxGeometry relative="1" as="geometry" />
        </mxCell>
        <mxCell id="_4BCGAMV-5Bkbx0sjwyB-165" value="&lt;span style=&quot;color: rgba(0 , 0 , 0 , 0.85) ; font-family: &amp;#34;menlo&amp;#34; ; background-color: rgb(255 , 255 , 255)&quot;&gt;resolve_sel默认实现&lt;br&gt;一般走这里&lt;br&gt;将resolve_sel缓存到元类中&lt;/span&gt;" style="rounded=1;whiteSpace=wrap;html=1;fillColor=#FFFFFF;" vertex="1" parent="WIyWlLk6GJQsqaUBKTNV-1">
          <mxGeometry x="90" y="820" width="260" height="60" as="geometry" />
        </mxCell>
        <mxCell id="_4BCGAMV-5Bkbx0sjwyB-166" style="edgeStyle=none;rounded=0;orthogonalLoop=1;jettySize=auto;html=1;entryX=0.5;entryY=0;entryDx=0;entryDy=0;endArrow=block;endFill=0;endSize=8;" edge="1" parent="WIyWlLk6GJQsqaUBKTNV-1" source="_4BCGAMV-5Bkbx0sjwyB-165" target="_4BCGAMV-5Bkbx0sjwyB-165">
          <mxGeometry relative="1" as="geometry" />
        </mxCell>
        <mxCell id="_4BCGAMV-5Bkbx0sjwyB-170" value="&lt;span&gt;inst = 对象，cls = 类&lt;/span&gt;" style="edgeStyle=none;rounded=0;orthogonalLoop=1;jettySize=auto;html=1;exitX=0.5;exitY=1;exitDx=0;exitDy=0;entryX=0.5;entryY=0;entryDx=0;entryDy=0;endArrow=block;endFill=0;endSize=8;" edge="1" parent="WIyWlLk6GJQsqaUBKTNV-1" source="_4BCGAMV-5Bkbx0sjwyB-169" target="_4BCGAMV-5Bkbx0sjwyB-134">
          <mxGeometry x="-0.2405" relative="1" as="geometry">
            <mxPoint as="offset" />
          </mxGeometry>
        </mxCell>
        <mxCell id="_4BCGAMV-5Bkbx0sjwyB-169" value="&lt;span style=&quot;color: rgba(0 , 0 , 0 , 0.85) ; font-family: &amp;#34;menlo&amp;#34; ; background-color: rgb(255 , 255 , 255)&quot;&gt;resolve_sel =&amp;nbsp;&lt;/span&gt;&lt;span style=&quot;font-family: &amp;#34;menlo&amp;#34; ; background-color: rgb(255 , 255 , 255) ; color: rgb(155 , 35 , 147)&quot;&gt;&lt;b&gt;@selector&lt;/b&gt;&lt;/span&gt;&lt;span style=&quot;color: rgba(0 , 0 , 0 , 0.85) ; font-family: &amp;#34;menlo&amp;#34; ; background-color: rgb(255 , 255 , 255)&quot;&gt;(resolveInstanceMethod:)&lt;/span&gt;" style="rounded=1;whiteSpace=wrap;html=1;fillColor=#FFFFFF;" vertex="1" parent="WIyWlLk6GJQsqaUBKTNV-1">
          <mxGeometry x="85" y="540" width="270" height="70" as="geometry" />
        </mxCell>
        <mxCell id="_4BCGAMV-5Bkbx0sjwyB-181" style="edgeStyle=none;rounded=0;orthogonalLoop=1;jettySize=auto;html=1;exitX=0.5;exitY=1;exitDx=0;exitDy=0;endArrow=block;endFill=0;endSize=8;entryX=0.5;entryY=0;entryDx=0;entryDy=0;" edge="1" parent="WIyWlLk6GJQsqaUBKTNV-1" source="_4BCGAMV-5Bkbx0sjwyB-173" target="_4BCGAMV-5Bkbx0sjwyB-134">
          <mxGeometry relative="1" as="geometry">
            <mxPoint x="220" y="689" as="targetPoint" />
            <Array as="points">
              <mxPoint x="480" y="660" />
              <mxPoint x="220" y="660" />
            </Array>
          </mxGeometry>
        </mxCell>
        <mxCell id="_4BCGAMV-5Bkbx0sjwyB-182" value="inst = 类，cls = 元类" style="edgeLabel;html=1;align=center;verticalAlign=middle;resizable=0;points=[];" vertex="1" connectable="0" parent="_4BCGAMV-5Bkbx0sjwyB-181">
          <mxGeometry x="-0.232" y="1" relative="1" as="geometry">
            <mxPoint x="1" y="-76" as="offset" />
          </mxGeometry>
        </mxCell>
        <mxCell id="_4BCGAMV-5Bkbx0sjwyB-173" value="&lt;span style=&quot;color: rgba(0 , 0 , 0 , 0.85) ; font-family: &amp;#34;menlo&amp;#34; ; background-color: rgb(255 , 255 , 255)&quot;&gt;resolve_sel =&amp;nbsp;&lt;/span&gt;&lt;span style=&quot;font-family: &amp;#34;menlo&amp;#34; ; background-color: rgb(255 , 255 , 255) ; color: rgb(155 , 35 , 147)&quot;&gt;&lt;b&gt;@selector&lt;/b&gt;&lt;/span&gt;&lt;span style=&quot;color: rgba(0 , 0 , 0 , 0.85) ; font-family: &amp;#34;menlo&amp;#34; ; background-color: rgb(255 , 255 , 255)&quot;&gt;(&lt;/span&gt;&lt;span style=&quot;color: rgba(0 , 0 , 0 , 0.85) ; font-family: &amp;#34;menlo&amp;#34; ; background-color: rgb(255 , 255 , 255)&quot;&gt;resolveClassMethod&lt;/span&gt;&lt;span style=&quot;color: rgba(0 , 0 , 0 , 0.85) ; font-family: &amp;#34;menlo&amp;#34; ; background-color: rgb(255 , 255 , 255)&quot;&gt;:)&lt;/span&gt;" style="rounded=1;whiteSpace=wrap;html=1;fillColor=#FFFFFF;" vertex="1" parent="WIyWlLk6GJQsqaUBKTNV-1">
          <mxGeometry x="345" y="407.5" width="270" height="70" as="geometry" />
        </mxCell>
        <mxCell id="_4BCGAMV-5Bkbx0sjwyB-203" style="edgeStyle=none;rounded=0;orthogonalLoop=1;jettySize=auto;html=1;exitX=1;exitY=0.5;exitDx=0;exitDy=0;entryX=0;entryY=0.5;entryDx=0;entryDy=0;shadow=0;fontSize=15;fontColor=#FFFFFF;endArrow=block;endFill=0;endSize=8;" edge="1" parent="WIyWlLk6GJQsqaUBKTNV-1" source="_4BCGAMV-5Bkbx0sjwyB-174" target="_4BCGAMV-5Bkbx0sjwyB-200">
          <mxGeometry relative="1" as="geometry" />
        </mxCell>
        <mxCell id="_4BCGAMV-5Bkbx0sjwyB-174" value="&lt;p style=&quot;margin: 0.0px 0.0px 0.0px 0.0px ; font: 12.0px &amp;#34;menlo&amp;#34; ; color: #326d74 ; background-color: #ffffff&quot;&gt;lookUpImpOrForwardTryCache&lt;/p&gt;&lt;p style=&quot;margin: 0.0px 0.0px 0.0px 0.0px ; font: 12.0px &amp;#34;menlo&amp;#34; ; color: #326d74 ; background-color: #ffffff&quot;&gt;调用前面缓存的动态添加的imp或者消息转发的forward_imp&lt;/p&gt;" style="whiteSpace=wrap;html=1;rounded=1;fillColor=#FFFFFF;" vertex="1" parent="WIyWlLk6GJQsqaUBKTNV-1">
          <mxGeometry x="110" y="1300" width="220" height="70" as="geometry" />
        </mxCell>
        <mxCell id="_4BCGAMV-5Bkbx0sjwyB-193" value="否" style="edgeStyle=none;rounded=0;orthogonalLoop=1;jettySize=auto;html=1;exitX=0.5;exitY=1;exitDx=0;exitDy=0;entryX=0.5;entryY=0;entryDx=0;entryDy=0;shadow=0;endArrow=block;endFill=0;endSize=8;" edge="1" parent="WIyWlLk6GJQsqaUBKTNV-1" source="_4BCGAMV-5Bkbx0sjwyB-187" target="_4BCGAMV-5Bkbx0sjwyB-174">
          <mxGeometry relative="1" as="geometry" />
        </mxCell>
        <mxCell id="_4BCGAMV-5Bkbx0sjwyB-194" style="edgeStyle=none;rounded=0;orthogonalLoop=1;jettySize=auto;html=1;exitX=0;exitY=0.5;exitDx=0;exitDy=0;entryX=0;entryY=0.5;entryDx=0;entryDy=0;shadow=0;endArrow=block;endFill=0;endSize=8;" edge="1" parent="WIyWlLk6GJQsqaUBKTNV-1" source="_4BCGAMV-5Bkbx0sjwyB-187" target="WIyWlLk6GJQsqaUBKTNV-7">
          <mxGeometry relative="1" as="geometry">
            <Array as="points">
              <mxPoint x="40" y="1210" />
              <mxPoint x="40" y="840" />
              <mxPoint x="40" y="454" />
            </Array>
          </mxGeometry>
        </mxCell>
        <mxCell id="_4BCGAMV-5Bkbx0sjwyB-195" value="是" style="edgeLabel;html=1;align=center;verticalAlign=middle;resizable=0;points=[];" vertex="1" connectable="0" parent="_4BCGAMV-5Bkbx0sjwyB-194">
          <mxGeometry x="-0.0979" y="-2" relative="1" as="geometry">
            <mxPoint x="-2" as="offset" />
          </mxGeometry>
        </mxCell>
        <mxCell id="_4BCGAMV-5Bkbx0sjwyB-187" value="&lt;span style=&quot;color: rgb(50 , 109 , 116) ; font-family: &amp;#34;menlo&amp;#34; ; background-color: rgb(255 , 255 , 255)&quot;&gt;resolveClassMethod&lt;/span&gt;&lt;p style=&quot;margin: 0px ; font-stretch: normal ; line-height: normal ; font-family: &amp;#34;menlo&amp;#34; ; color: rgba(0 , 0 , 0 , 0.85) ; background-color: rgb(255 , 255 , 255)&quot;&gt;&amp;nbsp;&amp;amp;&amp;amp;&amp;nbsp;&lt;br&gt;&lt;/p&gt;&lt;span style=&quot;color: rgb(50 , 109 , 116) ; font-family: &amp;#34;menlo&amp;#34; ; background-color: rgb(255 , 255 , 255)&quot;&gt;resolveClassMethod:&lt;/span&gt;&lt;span style=&quot;color: rgba(0 , 0 , 0 , 0.85) ; font-family: &amp;#34;menlo&amp;#34; ; background-color: rgb(255 , 255 , 255)&quot;&gt;方法没有动态添加imp&lt;/span&gt;&lt;span style=&quot;color: rgb(50 , 109 , 116) ; font-family: &amp;#34;menlo&amp;#34; ; background-color: rgb(255 , 255 , 255)&quot;&gt;&lt;br&gt;&lt;/span&gt;" style="rounded=1;whiteSpace=wrap;html=1;shadow=0;" vertex="1" parent="WIyWlLk6GJQsqaUBKTNV-1">
          <mxGeometry x="90" y="1169" width="260" height="81" as="geometry" />
        </mxCell>
        <mxCell id="_4BCGAMV-5Bkbx0sjwyB-197" style="edgeStyle=none;rounded=0;orthogonalLoop=1;jettySize=auto;html=1;exitX=0.5;exitY=1;exitDx=0;exitDy=0;entryX=0.5;entryY=0;entryDx=0;entryDy=0;endArrow=block;endFill=0;endSize=8;" edge="1" parent="WIyWlLk6GJQsqaUBKTNV-1" source="_4BCGAMV-5Bkbx0sjwyB-200" target="_4BCGAMV-5Bkbx0sjwyB-202">
          <mxGeometry relative="1" as="geometry" />
        </mxCell>
        <mxCell id="_4BCGAMV-5Bkbx0sjwyB-198" value="否" style="edgeLabel;html=1;align=center;verticalAlign=middle;resizable=0;points=[];" vertex="1" connectable="0" parent="_4BCGAMV-5Bkbx0sjwyB-197">
          <mxGeometry relative="1" as="geometry">
            <mxPoint as="offset" />
          </mxGeometry>
        </mxCell>
        <mxCell id="_4BCGAMV-5Bkbx0sjwyB-199" value="是" style="edgeStyle=none;rounded=0;orthogonalLoop=1;jettySize=auto;html=1;exitX=1;exitY=0.5;exitDx=0;exitDy=0;entryX=0;entryY=0.5;entryDx=0;entryDy=0;endArrow=block;endFill=0;endSize=8;" edge="1" parent="WIyWlLk6GJQsqaUBKTNV-1" source="_4BCGAMV-5Bkbx0sjwyB-200" target="_4BCGAMV-5Bkbx0sjwyB-201">
          <mxGeometry relative="1" as="geometry" />
        </mxCell>
        <mxCell id="_4BCGAMV-5Bkbx0sjwyB-200" value="&lt;p style=&quot;margin: 0px ; font-stretch: normal ; line-height: normal ; font-family: &amp;#34;menlo&amp;#34; ; background-color: rgb(255 , 255 , 255)&quot;&gt;&lt;span style=&quot;color: rgba(0 , 0 , 0 , 0.85)&quot;&gt;是否动态添加了imp&lt;/span&gt;&lt;/p&gt;" style="rhombus;whiteSpace=wrap;html=1;shadow=0;fontFamily=Helvetica;fontSize=12;align=center;strokeWidth=1;spacing=6;spacingTop=-4;" vertex="1" parent="WIyWlLk6GJQsqaUBKTNV-1">
          <mxGeometry x="400" y="1300" width="180" height="70" as="geometry" />
        </mxCell>
        <mxCell id="_4BCGAMV-5Bkbx0sjwyB-201" value="调用动态添加的imp" style="rounded=1;whiteSpace=wrap;html=1;fillColor=#66FF66;fontSize=15;" vertex="1" parent="WIyWlLk6GJQsqaUBKTNV-1">
          <mxGeometry x="630" y="1305" width="190" height="60" as="geometry" />
        </mxCell>
        <mxCell id="_4BCGAMV-5Bkbx0sjwyB-202" value="进入消息转发流程" style="rounded=1;whiteSpace=wrap;html=1;fillColor=#B3B3B3;fontSize=15;" vertex="1" parent="WIyWlLk6GJQsqaUBKTNV-1">
          <mxGeometry x="400" y="1420" width="180" height="70" as="geometry" />
        </mxCell>
      </root>
    </mxGraphModel>
  </diagram>
</mxfile>
